<?xml version="1.0" encoding="UTF-8"?>
<mxfile host="app.diagrams.net">
  <diagram id="activity" name="Activity Diagram">
    <mxGraphModel dx="1304" dy="767" grid="1" gridSize="10" guides="1" tooltips="1" connect="1" arrows="1" fold="1" page="1" pageScale="1" pageWidth="827" pageHeight="1169" math="0" shadow="0">
      <root>
        <mxCell id="0"/>
        <mxCell id="1" parent="0"/>

        <!-- Start -->
        <mxCell id="start" value="Start" style="shape=ellipse;fillColor=green;whiteSpace=wrap;html=1;" vertex="1" parent="1">
          <mxGeometry x="50" y="60" width="80" height="40" as="geometry"/>
        </mxCell>

        <!-- Request -->
        <mxCell id="request" value="Получение запроса GET /recommendation/{userId}" style="shape=rectangle;rounded=1;whiteSpace=wrap;html=1;" vertex="1" parent="1">
          <mxGeometry x="200" y="60" width="300" height="60" as="geometry"/>
        </mxCell>

        <!-- Service -->
        <mxCell id="service" value="RecommendationService.getRecommendations()" style="shape=rectangle;rounded=1;whiteSpace=wrap;html=1;" vertex="1" parent="1">
          <mxGeometry x="200" y="160" width="300" height="60" as="geometry"/>
        </mxCell>

        <!-- Repository -->
        <mxCell id="repository" value="RecommendationRepository.getUserFinancials()" style="shape=rectangle;rounded=1;whiteSpace=wrap;html=1;" vertex="1" parent="1">
          <mxGeometry x="200" y="260" width="300" height="60" as="geometry"/>
        </mxCell>

        <!-- Rules -->
        <mxCell id="rules" value="Применение набора правил (RuleSet)" style="shape=rectangle;rounded=1;whiteSpace=wrap;html=1;" vertex="1" parent="1">
          <mxGeometry x="200" y="360" width="300" height="60" as="geometry"/>
        </mxCell>

        <!-- Response -->
        <mxCell id="response" value="Формирование ответа RecommendationResponse" style="shape=rectangle;rounded=1;whiteSpace=wrap;html=1;" vertex="1" parent="1">
          <mxGeometry x="200" y="460" width="300" height="60" as="geometry"/>
        </mxCell>

        <!-- End -->
        <mxCell id="end" value="End" style="shape=ellipse;fillColor=red;whiteSpace=wrap;html=1;" vertex="1" parent="1">
          <mxGeometry x="550" y="500" width="80" height="40" as="geometry"/>
        </mxCell>

        <!-- Connections -->
        <mxCell id="e1" edge="1" parent="1" source="start" target="request"><mxGeometry relative="1" as="geometry"/></mxCell>
        <mxCell id="e2" edge="1" parent="1" source="request" target="service"><mxGeometry relative="1" as="geometry"/></mxCell>
        <mxCell id="e3" edge="1" parent="1" source="service" target="repository"><mxGeometry relative="1" as="geometry"/></mxCell>
        <mxCell id="e4" edge="1" parent="1" source="repository" target="rules"><mxGeometry relative="1" as="geometry"/></mxCell>
        <mxCell id="e5" edge="1" parent="1" source="rules" target="response"><mxGeometry relative="1" as="geometry"/></mxCell>
        <mxCell id="e6" edge="1" parent="1" source="response" target="end"><mxGeometry relative="1" as="geometry"/></mxCell>
      </root>
    </mxGraphModel>
  </diagram>
</mxfile>
